<svg width="20" height="20" viewBox="0 0 20 20" fill="none" xmlns="http://www.w3.org/2000/svg">
<path d="M20 10C20 15.5228 15.5228 20 10 20C4.47719 20 0 15.5228 0 10C0 10.0023 10 0.00113281 10 0C15.5228 0 20 4.47719 20 10Z" fill="#0052B4"/>
<path d="M10.0002 0C9.99967 0 9.99908 3.90625e-05 9.99854 3.90625e-05L10.0002 0Z" fill="#F0F0F0"/>
<path d="M9.97314 10H9.9999C9.9999 9.99096 9.9999 9.98229 9.9999 9.97327C9.991 9.98221 9.98209 9.99112 9.97314 10Z" fill="#F0F0F0"/>
<path d="M10 5.21836C10 3.45879 10 2.30578 10 0.000976562H9.99832C4.47625 0.001875 0 4.47863 0 10.0009H5.21738V7.06297L8.15535 10.0009H9.97328C9.98223 9.99203 9.99113 9.98312 10 9.97418C10 9.30047 10 8.69934 10 8.15637L7.06203 5.21836H10Z" fill="#F0F0F0"/>
<path d="M5.05904 1.30438C3.49502 2.19497 2.19479 3.4952 1.3042 5.05923V10H3.91291V3.91313V3.91309H9.99986C9.99986 3.09032 9.99986 2.30649 9.99986 1.30438H5.05904Z" fill="#D80027"/>
<path d="M9.99986 8.77024L6.44701 5.21742H5.21729C5.21729 5.21739 5.21729 5.21742 5.21729 5.21742L9.99982 9.99996H9.99986C9.99986 9.99996 9.99986 9.15211 9.99986 8.77024Z" fill="#D80027"/>
<path d="M6.03107 11.7393L6.5799 12.8869L7.81924 12.6005L7.26424 13.7451L8.26088 14.5354L7.01998 14.8151L7.02346 16.0871L6.03107 15.2913L5.03873 16.0871L5.04221 14.8151L3.80127 14.5354L4.79795 13.7451L4.24287 12.6005L5.48229 12.8869L6.03107 11.7393Z" fill="#F0F0F0"/>
<path d="M14.9718 13.9131L15.2462 14.4869L15.8659 14.3436L15.5884 14.9159L16.0867 15.3111L15.4663 15.451L15.468 16.087L14.9718 15.6891L14.4756 16.087L14.4774 15.451L13.8569 15.3111L14.3553 14.9159L14.0778 14.3436L14.6974 14.4869L14.9718 13.9131Z" fill="#F0F0F0"/>
<path d="M12.4191 7.82629L12.6935 8.40012L13.3132 8.25684L13.0357 8.82915L13.534 9.22434L12.9136 9.36418L12.9153 10.0002L12.4191 9.60227L11.9229 10.0002L11.9246 9.36418L11.3042 9.22434L11.8025 8.82915L11.525 8.25684L12.1447 8.40012L12.4191 7.82629Z" fill="#F0F0F0"/>
<path d="M14.9718 4.3479L15.2462 4.92173L15.8659 4.77849L15.5884 5.35079L16.0867 5.74595L15.4663 5.88583L15.468 6.52185L14.9718 6.12392L14.4756 6.52185L14.4774 5.88583L13.8569 5.74595L14.3552 5.35079L14.0778 4.77849L14.6974 4.92173L14.9718 4.3479Z" fill="#F0F0F0"/>
<path d="M17.2018 6.95654L17.4762 7.53037L18.0959 7.38709L17.8184 7.95939L18.3167 8.35458L17.6963 8.49447L17.698 9.13044L17.2018 8.73255L16.7057 9.13044L16.7073 8.49447L16.0869 8.35458L16.5852 7.95939L16.3077 7.38709L16.9274 7.53037L17.2018 6.95654Z" fill="#F0F0F0"/>
<path d="M15.6077 10L15.8235 10.6643H16.522L15.9569 11.0749L16.1728 11.7391L15.6077 11.3286L15.0426 11.7391L15.2584 11.0749L14.6934 10.6643H15.3918L15.6077 10Z" fill="#F0F0F0"/>
</svg>
