<svg width="20" height="20" viewBox="0 0 20 20" fill="none" xmlns="http://www.w3.org/2000/svg">
<path d="M0 13.3333C0 14.7274 0.35119 16.0461 0.976562 17.2022L10 17.7778L19.0234 17.2022C19.6488 16.0461 20 14.7274 20 13.3333V6.66667C20 5.27252 19.6488 3.95385 19.0234 2.79778L10 2.22222L0.976562 2.79778C0.35119 3.95385 0 5.27252 0 6.66667V13.3333Z" fill="#009739"/>
<path d="M0 6.66667C0 5.27252 0.35119 3.95385 0.976562 2.79778L10 2.22222L19.0234 2.79778C19.6488 3.95385 20 5.27252 20 6.66667H0Z" fill="#ED2939"/>
<path d="M0 13.3333C0 14.7274 0.35119 16.0461 0.976562 17.2022L10 17.7778L19.0234 17.2022C19.6488 16.0461 20 14.7274 20 13.3333H0Z" fill="#00B9E4"/>
</svg>
