<svg width="20" height="20" viewBox="0 0 20 20" fill="none" xmlns="http://www.w3.org/2000/svg">
<path d="M10 20C15.5228 20 20 15.5228 20 10C20 4.47715 15.5228 0 10 0C4.47715 0 0 4.47715 0 10C0 15.5228 4.47715 20 10 20Z" fill="#6DA544"/>
<path d="M10.0001 3.91302L18.261 9.99998L10.0001 16.0869L1.73926 9.99998L10.0001 3.91302Z" fill="#FFDA44"/>
<path d="M10.0002 13.4782C11.9212 13.4782 13.4785 11.9209 13.4785 9.99991C13.4785 8.07893 11.9212 6.52167 10.0002 6.52167C8.07923 6.52167 6.52197 8.07893 6.52197 9.99991C6.52197 11.9209 8.07923 13.4782 10.0002 13.4782Z" fill="#F0F0F0"/>
<path d="M8.26047 9.78259C7.65563 9.78259 7.07191 9.87459 6.52246 10.0453C6.5468 11.9453 8.09383 13.4783 9.99961 13.4783C11.1781 13.4783 12.2188 12.8917 12.848 11.9951C11.7716 10.6476 10.1153 9.78259 8.26047 9.78259Z" fill="#0052B4"/>
<path d="M13.4128 10.6663C13.4547 10.4505 13.4773 10.2279 13.4773 9.99991C13.4773 8.07889 11.92 6.52167 9.99906 6.52167C8.5657 6.52167 7.33523 7.38889 6.80273 8.6271C7.27344 8.52956 7.76078 8.47819 8.25996 8.47819C10.2802 8.47815 12.1077 9.31792 13.4128 10.6663Z" fill="#0052B4"/>
</svg>
