<svg width="20" height="20" viewBox="0 0 20 20" fill="none" xmlns="http://www.w3.org/2000/svg">
<path d="M10 20C15.5228 20 20 15.5228 20 10C20 4.47715 15.5228 0 10 0C4.47715 0 0 4.47715 0 10C0 15.5228 4.47715 20 10 20Z" fill="#F0F0F0"/>
<path d="M19.9998 10C19.9998 6.03543 17.6926 2.60981 14.3477 0.99231V19.0077C17.6926 17.3903 19.9998 13.9647 19.9998 10Z" fill="#D80027"/>
<path d="M0 10C0 13.9647 2.30723 17.3903 5.65219 19.0078V0.99231C2.30723 2.60981 0 6.03543 0 10Z" fill="#D80027"/>
<path d="M11.7394 11.3044L13.4785 10.4348L12.6089 10V9.13045L10.8698 10L11.7394 8.26088H10.8698L10.0002 6.95654L9.13064 8.26088H8.26107L9.13064 10L7.3915 9.13045V10L6.52197 10.4348L8.26107 11.3044L7.82631 12.1739H9.56545V13.4783H10.435V12.1739H12.1741L11.7394 11.3044Z" fill="#D80027"/>
</svg>
