<svg width="20" height="20" viewBox="0 0 20 20" fill="none" xmlns="http://www.w3.org/2000/svg">
<path d="M10 20C15.5228 20 20 15.5228 20 10C20 4.47715 15.5228 0 10 0C4.47715 0 0 4.47715 0 10C0 15.5228 4.47715 20 10 20Z" fill="#D80027"/>
<path d="M5.47266 6.08521L6.33594 8.74146H9.12891L6.87109 10.386L7.73438 13.0422L5.47266 11.4016L3.21094 13.0422L4.07812 10.386L1.81641 8.74146H4.60938L5.47266 6.08521Z" fill="#FFDA44"/>
<path d="M11.8555 15.4879L11.1953 14.6754L10.2188 15.0543L10.7852 14.1754L10.125 13.359L11.1367 13.6285L11.707 12.7496L11.7617 13.7965L12.7773 14.066L11.7969 14.441L11.8555 15.4879Z" fill="#FFDA44"/>
<path d="M13.168 13.1051L13.4805 12.1051L12.625 11.4996L13.6719 11.484L13.9805 10.484L14.3203 11.4762L15.3672 11.4645L14.5273 12.0895L14.8633 13.0817L14.0078 12.4762L13.168 13.1051Z" fill="#FFDA44"/>
<path d="M14.9375 7.3396L14.4766 8.281L15.2266 9.01147L14.1914 8.86303L13.7305 9.80053L13.5508 8.76928L12.5117 8.62085L13.4414 8.13257L13.2617 7.09741L14.0117 7.82788L14.9375 7.3396Z" fill="#FFDA44"/>
<path d="M11.8823 4.48792L11.8042 5.53088L12.7769 5.92542L11.7573 6.17542L11.6831 7.22229L11.1323 6.33167L10.1128 6.58167L10.7886 5.78088L10.2339 4.89416L11.2065 5.2887L11.8823 4.48792Z" fill="#FFDA44"/>
</svg>
