<svg width="20" height="20" viewBox="0 0 20 20" fill="none" xmlns="http://www.w3.org/2000/svg">
<path d="M10 20C15.5228 20 20 15.5228 20 10C20 4.47715 15.5228 0 10 0C4.47715 0 0 4.47715 0 10C0 15.5228 4.47715 20 10 20Z" fill="#F0F0F0"/>
<path d="M7.8267 8.69566H19.9159C19.2768 3.78914 15.0813 0 10.0006 0C9.25389 0 8.52666 0.0825391 7.82666 0.237695V8.69566H7.8267Z" fill="#D80027"/>
<path d="M5.2177 8.69555V1.21582C2.47187 2.71402 0.506172 5.46211 0.0849609 8.69559H5.2177V8.69555Z" fill="#D80027"/>
<path d="M5.21766 11.3044H0.0849609C0.506172 14.5379 2.47187 17.286 5.2177 18.7842L5.21766 11.3044Z" fill="#D80027"/>
<path d="M7.82666 11.3045V19.7624C8.52666 19.9176 9.25389 20.0001 10.0006 20.0001C15.0813 20.0001 19.2768 16.211 19.9159 11.3044H7.82666V11.3045Z" fill="#D80027"/>
</svg>
