<svg width="20" height="20" viewBox="0 0 20 20" fill="none" xmlns="http://www.w3.org/2000/svg">
<path d="M10 20C15.5228 20 20 15.5228 20 10C20 4.47715 15.5228 0 10 0C4.47715 0 0 4.47715 0 10C0 15.5228 4.47715 20 10 20Z" fill="#0052B4"/>
<path d="M10.0004 3.91302L10.3242 4.90947H11.3718L10.5242 5.52529L10.848 6.52174L10.0004 5.90588L9.15273 6.52174L9.47652 5.52529L8.62891 4.90947H9.6766L10.0004 3.91302Z" fill="#FFDA44"/>
<path d="M5.69578 5.6957L6.62938 6.17132L7.3702 5.43054L7.20625 6.46531L8.1398 6.94097L7.105 7.10488L6.94109 8.13972L6.46543 7.20617L5.43066 7.37011L6.17148 6.62929L5.69578 5.6957Z" fill="#FFDA44"/>
<path d="M3.91309 10.0003L4.90953 9.67648V8.62878L5.52531 9.47644L6.5218 9.15265L5.9059 10.0003L6.5218 10.8479L5.52531 10.5241L4.90953 11.3718V10.3241L3.91309 10.0003Z" fill="#FFDA44"/>
<path d="M5.69578 14.304L6.17145 13.3704L5.43066 12.6296L6.46547 12.7936L6.94105 11.86L7.105 12.8949L8.13977 13.0588L7.20633 13.5344L7.3702 14.5692L6.62938 13.8284L5.69578 14.304Z" fill="#FFDA44"/>
<path d="M10.0004 16.087L9.67656 15.0906H8.62891L9.47656 14.4748L9.15273 13.4784L10.0004 14.0942L10.848 13.4784L10.5242 14.4748L11.3718 15.0906H10.3241L10.0004 16.087Z" fill="#FFDA44"/>
<path d="M14.3043 14.304L13.3707 13.8284L12.6299 14.5692L12.7938 13.5344L11.8604 13.0588L12.8951 12.8949L13.059 11.86L13.5346 12.7936L14.5694 12.6296L13.8286 13.3705L14.3043 14.304Z" fill="#FFDA44"/>
<path d="M16.0867 10.0003L15.0902 10.3241V11.3718L14.4744 10.5241L13.478 10.8479L14.0939 10.0003L13.478 9.15265L14.4744 9.47644L15.0902 8.62878V9.67652L16.0867 10.0003Z" fill="#FFDA44"/>
<path d="M14.3043 5.6959L13.8286 6.6295L14.5695 7.37032L13.5346 7.20633L13.059 8.13989L12.8951 7.10508L11.8604 6.94114L12.7938 6.46551L12.6299 5.43079L13.3708 6.17157L14.3043 5.6959Z" fill="#FFDA44"/>
</svg>
