<svg width="20" height="20" viewBox="0 0 20 20" fill="none" xmlns="http://www.w3.org/2000/svg">
<path d="M10 20C15.5228 20 20 15.5228 20 10C20 4.47715 15.5228 0 10 0C4.47715 0 0 4.47715 0 10C0 15.5228 4.47715 20 10 20Z" fill="#F0F0F0"/>
<path d="M19.9154 8.69566H11.3044H11.3044V0.0846484C10.8774 0.0290625 10.4421 0 10 0C9.55793 0 9.12262 0.0290625 8.69566 0.0846484V8.69559V8.69563H0.0846484C0.0290625 9.12262 0 9.55793 0 10C0 10.4421 0.0290625 10.8774 0.0846484 11.3043H8.69559H8.69563V19.9154C9.12262 19.9709 9.55793 20 10 20C10.4421 20 10.8774 19.971 11.3043 19.9154V11.3044V11.3044H19.9154C19.9709 10.8774 20 10.4421 20 10C20 9.55793 19.9709 9.12262 19.9154 8.69566Z" fill="#D80027"/>
<path d="M6.08674 4.78228V3.47791H4.7824V4.78228H3.47803V6.08662H4.7824V7.39095H6.08674V6.08662H7.39107V4.78228H6.08674Z" fill="#D80027"/>
<path d="M15.2176 4.78228V3.47791H13.9132V4.78228H12.6089V6.08662H13.9132V7.39095H15.2176V6.08662H16.5219V4.78228H15.2176Z" fill="#D80027"/>
<path d="M6.08674 13.9133V12.609H4.7824V13.9133H3.47803V15.2177H4.7824V16.5221H6.08674V15.2177H7.39107V13.9133H6.08674Z" fill="#D80027"/>
<path d="M15.2176 13.9133V12.609H13.9132V13.9133H12.6089V15.2177H13.9132V16.5221H15.2176V15.2177H16.5219V13.9133H15.2176Z" fill="#D80027"/>
</svg>
