<svg width="20" height="20" viewBox="0 0 20 20" fill="none" xmlns="http://www.w3.org/2000/svg">
<path d="M10 20C15.5228 20 20 15.5228 20 10C20 4.47715 15.5228 0 10 0C4.47715 0 0 4.47715 0 10C0 15.5228 4.47715 20 10 20Z" fill="#FFDA44"/>
<path d="M0 10C0 4.47715 4.47715 0 10 0C15.5228 0 20 4.47715 20 10" fill="#000000"/>
<path d="M0 10C0 12.7614 1.05357 15.2721 2.81802 17.1005C4.58247 18.9289 7.0478 20 10 20C12.9522 20 15.4175 18.9289 17.182 17.1005C18.9464 15.2721 20 12.7614 20 10" fill="#D80027"/>
</svg>
