<svg width="20" height="20" viewBox="0 0 20 20" fill="none" xmlns="http://www.w3.org/2000/svg">
<path d="M10 20C15.5228 20 20 15.5228 20 10C20 4.47715 15.5228 0 10 0C4.47715 0 0 4.47715 0 10C0 15.5228 4.47715 20 10 20Z" fill="#D80027"/>
<path d="M11.0326 7.56486C10.8053 8.51013 10.4015 8.32986 10.2034 9.15424C9.03608 8.87357 8.31717 7.69974 8.59784 6.53236C8.87838 5.36506 10.0523 4.64615 11.2197 4.92681C10.8233 6.57553 11.2359 6.71943 11.0326 7.56486Z" fill="#F0F0F0"/>
<path d="M8.00313 8.26539C8.83192 8.77359 8.53567 9.10199 9.25841 9.54523C8.63075 10.5687 7.29227 10.8896 6.26876 10.262C5.24528 9.63437 4.9243 8.29582 5.55196 7.27234C6.99751 8.15875 7.26177 7.81082 8.00313 8.26539Z" fill="#F0F0F0"/>
<path d="M7.73304 11.3627C8.47253 10.7315 8.6932 11.1147 9.33808 10.5643C10.1176 11.4775 10.0091 12.8497 9.09601 13.6292C8.18281 14.4087 6.81062 14.3001 6.03125 13.387C7.32086 12.2861 7.0716 11.9272 7.73304 11.3627Z" fill="#F0F0F0"/>
<path d="M10.5959 12.5763C10.224 11.678 10.6567 11.5864 10.3325 10.8031C11.4419 10.344 12.7134 10.8711 13.1726 11.9805C13.6317 13.0898 13.1045 14.3613 11.9951 14.8205C11.3468 13.2537 10.9285 13.3798 10.5959 12.5763Z" fill="#F0F0F0"/>
<path d="M12.6345 10.2291C11.6652 10.3052 11.7117 9.86536 10.8666 9.93169C10.7728 8.73485 11.6671 7.68833 12.864 7.59439C14.0608 7.50068 15.1073 8.39489 15.2012 9.59184C13.5106 9.72438 13.5013 10.1612 12.6345 10.2291Z" fill="#F0F0F0"/>
</svg>
