<svg width="20" height="20" viewBox="0 0 20 20" fill="none" xmlns="http://www.w3.org/2000/svg">
<path d="M10 20C15.5228 20 20 15.5228 20 10C20 4.47715 15.5228 0 10 0C4.47715 0 0 4.47715 0 10C0 15.5228 4.47715 20 10 20Z" fill="#F0F0F0"/>
<path d="M9.99943 0C6.03482 0 2.6092 2.30723 0.991699 5.65219H19.0071C17.3897 2.30723 13.964 0 9.99943 0Z" fill="#FF9811"/>
<path d="M9.99943 20.0001C13.964 20.0001 17.3897 17.6929 19.0072 14.3479H0.991699C2.6092 17.6929 6.03482 20.0001 9.99943 20.0001Z" fill="#6DA544"/>
<path d="M10.0002 13.4786C11.9212 13.4786 13.4785 11.9213 13.4785 10.0003C13.4785 8.07936 11.9212 6.52209 10.0002 6.52209C8.07923 6.52209 6.52197 8.07936 6.52197 10.0003C6.52197 11.9213 8.07923 13.4786 10.0002 13.4786Z" fill="#0052B4"/>
<path d="M10.0006 12.1739C11.2012 12.1739 12.1745 11.2006 12.1745 9.99995C12.1745 8.79934 11.2012 7.82605 10.0006 7.82605C8.79995 7.82605 7.82666 8.79934 7.82666 9.99995C7.82666 11.2006 8.79995 12.1739 10.0006 12.1739Z" fill="#F0F0F0"/>
<path d="M9.99943 7.31738L10.6701 8.8384L12.3226 8.65867L11.3407 9.99996L12.3226 11.3412L10.6701 11.1615L9.99943 12.6825L9.32877 11.1615L7.67627 11.3412L8.65814 9.99996L7.67627 8.65867L9.32877 8.8384L9.99943 7.31738Z" fill="#0052B4"/>
</svg>
