<svg width="20" height="20" viewBox="0 0 20 20" fill="none" xmlns="http://www.w3.org/2000/svg">
<g clip-path="url(#clip0)">
<path d="M10 20C15.5228 20 20 15.5228 20 10C20 4.47715 15.5228 0 10 0C4.47715 0 0 4.47715 0 10C0 15.5228 4.47715 20 10 20Z" fill="#F0F0F0"/>
<path d="M13.2481 7.39115H11.9398C11.9506 7.53494 11.9567 7.68002 11.9567 7.82592C11.9567 8.79326 11.7149 9.73088 11.2934 10.3983C11.1634 10.6042 10.9448 10.8949 10.6523 11.091V7.39111H9.34801V11.091C9.05555 10.8949 8.83699 10.6042 8.70695 10.3983C8.28539 9.73088 8.04363 8.79326 8.04363 7.82592C8.04363 7.68002 8.0498 7.5349 8.06059 7.39115H6.75223C6.74383 7.53424 6.73926 7.67916 6.73926 7.82592C6.73926 10.5078 8.1716 12.6085 10.0001 12.6085C11.8286 12.6085 13.261 10.5078 13.261 7.82592C13.2611 7.67916 13.2565 7.53424 13.2481 7.39115Z" fill="#D80027"/>
<path d="M4.12986 4.78262H5.4342V5.65219H6.73853V4.78262H8.04287V5.65219H9.34721V4.78262H10.6515V5.65219H11.9559V4.78262H13.2602V5.65219H14.5645V4.78262H15.8689V5.65219H19.007C17.3897 2.30723 13.964 0 9.99943 0C6.03486 0 2.6092 2.30723 0.991699 5.65219H4.12986V4.78262Z" fill="#6DA544"/>
<path d="M15.869 14.3479V15.2175H14.5647V14.3479H13.2603V15.2175H11.956V14.3479H10.6517V15.2175H9.34732V14.3479H8.04299V15.2175H6.73865V14.3479H5.4342V15.2175H4.12986V14.3479H0.991699C2.6092 17.6929 6.03482 20.0001 9.99943 20.0001C13.964 20.0001 17.3897 17.6929 19.0072 14.3479H15.869Z" fill="#D80027"/>
</g>
<defs>
<clipPath id="clip0">
<path d="M0 0H20V20H0V0Z" fill="white"/>
</clipPath>
</defs>
</svg>
