<svg width="20" height="20" viewBox="0 0 20 20" fill="none" xmlns="http://www.w3.org/2000/svg">
<path d="M19.378 13.4782C19.78 12.3948 20 11.2231 20 9.99992C20 8.77671 19.78 7.60499 19.378 6.52167L10 5.6521L0.621992 6.52167C0.220039 7.60499 0 8.77671 0 9.99992C0 11.2231 0.220039 12.3948 0.621992 13.4782L10 14.3477L19.378 13.4782Z" fill="#F0F0F0"/>
<path d="M9.99963 19.9997C14.2992 19.9997 17.9647 17.2859 19.3776 13.4779H0.621582C2.03455 17.2859 5.69994 19.9997 9.99963 19.9997Z" fill="#D80027"/>
<path d="M9.99963 0C5.69994 0 2.03455 2.71375 0.621582 6.52176H19.3776C17.9647 2.71375 14.2992 0 9.99963 0Z" fill="#6DA544"/>
<path d="M2.92893 2.92859C-0.976309 6.83382 -0.976309 13.1655 2.92893 17.0708C3.94826 16.0514 4.94318 15.0565 6.52174 13.478V6.52144L2.92893 2.92859Z" fill="black"/>
</svg>
