<svg width="20" height="20" viewBox="0 0 20 20" fill="none" xmlns="http://www.w3.org/2000/svg">
<path d="M10 20C15.5228 20 20 15.5228 20 10C20 4.47715 15.5228 0 10 0C4.47715 0 0 4.47715 0 10C0 15.5228 4.47715 20 10 20Z" fill="#D80027"/>
<path d="M14.8904 9.9996L12.8921 10.9395L13.9562 12.8749L11.7862 12.4598L11.5114 14.6518L9.99984 13.0397L8.48844 14.6518L8.21348 12.4598L6.04363 12.8749L7.1077 10.9394L5.10938 9.9996L7.1077 9.05972L6.04363 7.12425L8.2134 7.53948L8.48851 5.34741L9.99984 6.95956L11.5114 5.34741L11.7862 7.53948L13.9563 7.12425L12.8922 9.05983L14.8904 9.9996Z" fill="#FFDA44"/>
<path d="M10.0005 13.0439C11.6814 13.0439 13.044 11.6813 13.044 10.0004C13.044 8.31952 11.6814 6.95691 10.0005 6.95691C8.31965 6.95691 6.95703 8.31952 6.95703 10.0004C6.95703 11.6813 8.31965 13.0439 10.0005 13.0439Z" fill="#D80027"/>
<path d="M8.47838 10C8.40506 10 8.33268 10.0038 8.26123 10.0109C8.26385 10.4324 8.41635 10.8182 8.66822 11.1179C8.8026 10.7563 9.00322 10.4266 9.25623 10.1444C9.01459 10.0515 8.75244 10 8.47838 10Z" fill="#FFDA44"/>
<path d="M9.41553 11.6378C9.59834 11.7031 9.79518 11.7389 10.0005 11.7389C10.2058 11.7389 10.4026 11.7031 10.5855 11.6378C10.4858 11.2467 10.2801 10.8975 10.0005 10.6232C9.72092 10.8975 9.51518 11.2467 9.41553 11.6378Z" fill="#FFDA44"/>
<path d="M11.5063 9.1307C11.2055 8.61094 10.6439 8.26086 10.0002 8.26086C9.35645 8.26086 8.79484 8.6109 8.49414 9.1307C9.04234 9.13348 9.55641 9.28254 10.0002 9.53992C10.444 9.28254 10.958 9.13348 11.5063 9.1307Z" fill="#FFDA44"/>
<path d="M10.7441 10.1445C10.9971 10.4267 11.1978 10.7564 11.3321 11.1181C11.584 10.8183 11.7365 10.4325 11.7391 10.011C11.6677 10.0038 11.5953 10.0001 11.522 10.0001C11.248 10.0001 10.9859 10.0516 10.7441 10.1445Z" fill="#FFDA44"/>
</svg>
