<svg width="20" height="20" viewBox="0 0 20 20" fill="none" xmlns="http://www.w3.org/2000/svg">
<path d="M10 20C15.5228 20 20 15.5228 20 10C20 4.47715 15.5228 0 10 0C4.47715 0 0 4.47715 0 10C0 15.5228 4.47715 20 10 20Z" fill="#F0F0F0"/>
<path d="M9.56543 9.9997H20.0002C20.0002 9.09708 19.8799 8.22279 19.6557 7.39099H9.56543V9.9997Z" fill="#D80027"/>
<path d="M9.56543 4.78266H18.5324C17.9203 3.78375 17.1377 2.90083 16.2251 2.17395H9.56543V4.78266Z" fill="#D80027"/>
<path d="M9.9993 20C12.3528 20 14.5159 19.1865 16.2242 17.826H3.77441C5.48266 19.1865 7.64582 20 9.9993 20Z" fill="#D80027"/>
<path d="M1.46748 15.2175H18.532C19.0235 14.4156 19.4046 13.539 19.6553 12.6088H0.344238C0.594902 13.539 0.976035 14.4156 1.46748 15.2175Z" fill="#D80027"/>
<path d="M10 10C10 4.47719 10 3.82609 10 0C4.47719 0 0 4.47719 0 10H10Z" fill="#0052B4"/>
<path d="M6.65033 8.55958C5.28463 8.55958 4.17752 7.45244 4.17752 6.08677C4.17752 4.72111 5.28467 3.61396 6.65033 3.61396C7.07615 3.61396 7.47682 3.72166 7.82662 3.91119C7.27787 3.37458 6.5274 3.04333 5.69924 3.04333C4.01842 3.04333 2.65576 4.40595 2.65576 6.08681C2.65576 7.76767 4.01842 9.13029 5.69924 9.13029C6.5274 9.13029 7.27787 8.79904 7.82662 8.26244C7.47682 8.45189 7.07619 8.55958 6.65033 8.55958Z" fill="#FFDA44"/>
<path d="M7.34739 4.3479L7.78641 5.26595L8.77786 5.03688L8.33387 5.95247L9.13122 6.58477L8.13848 6.80856L8.14126 7.82618L7.34739 7.18954L6.55348 7.82618L6.55621 6.80856L5.56348 6.58477L6.36082 5.95247L5.9168 5.03688L6.90832 5.26595L7.34739 4.3479Z" fill="#FFDA44"/>

</svg>
