<svg width="20" height="20" viewBox="0 0 20 20" fill="none" xmlns="http://www.w3.org/2000/svg">
<path d="M10 20C15.5228 20 20 15.5228 20 10C20 4.47715 15.5228 0 10 0C4.47715 0 0 4.47715 0 10C0 15.5228 4.47715 20 10 20Z" fill="#F0F0F0"/>
<path d="M19.9998 10C19.9998 6.03543 17.6926 2.60981 14.3477 0.99231V19.0077C17.6926 17.3903 19.9998 13.9647 19.9998 10Z" fill="#D80027"/>
<path d="M0 10C0 13.9647 2.30723 17.3903 5.65219 19.0078V0.99231C2.30723 2.60981 0 6.03543 0 10Z" fill="#6DA544"/>
<path d="M7.39111 10.0001C7.39111 11.4408 8.55908 12.6088 9.99983 12.6088C11.4406 12.6088 12.6085 11.4408 12.6085 10.0001V9.13049H7.39111V10.0001Z" fill="#6DA544"/>
<path d="M13.478 8.26093H10.8693C10.8693 7.78069 10.48 7.39136 9.99976 7.39136C9.51953 7.39136 9.13019 7.78069 9.13019 8.26093H6.52148C6.52148 8.7412 6.9398 9.1305 7.42 9.1305H7.39105C7.39105 9.61077 7.78035 10.0001 8.26062 10.0001C8.26062 10.4803 8.64992 10.8696 9.13019 10.8696H10.8693C11.3496 10.8696 11.7389 10.4803 11.7389 10.0001C12.2192 10.0001 12.6085 9.61077 12.6085 9.1305H12.5795C13.0598 9.1305 13.478 8.7412 13.478 8.26093Z" fill="#FF9811"/>
</svg>
