<svg width="20" height="20" viewBox="0 0 20 20" fill="none" xmlns="http://www.w3.org/2000/svg">
<path d="M14.3479 0.992266C13.0332 0.356562 11.5583 0 10.0001 0C8.4419 0 6.96697 0.356562 5.65229 0.992266L4.78271 10L5.65229 19.0077C6.96697 19.6434 8.4419 20 10.0001 20C11.5583 20 13.0332 19.6434 14.3479 19.0077L15.2175 10L14.3479 0.992266Z" fill="#FFDA44"/>
<path d="M5.65219 0.992676C2.30727 2.61014 0 6.03549 0 10.0001C0 13.9646 2.30727 17.39 5.65219 19.0074V0.992676Z" fill="#0052B4"/>
<path d="M14.3477 0.992676V19.0074C17.6926 17.39 19.9998 13.9646 19.9998 10.0001C19.9998 6.03549 17.6926 2.61014 14.3477 0.992676Z" fill="#D80027"/>
<path d="M13.4785 7.86784H11.0872C11.0872 7.26752 10.6005 6.78088 10.0002 6.78088C9.3999 6.78088 8.91326 7.26752 8.91326 7.86784H6.52197C6.52197 8.45889 7.03686 8.93799 7.62783 8.93799H7.59221C7.59221 9.52909 8.07135 10.0083 8.66244 10.0083C8.66244 10.5316 9.0383 10.9664 9.53471 11.0594L8.69135 12.9634C9.09545 13.1276 9.53709 13.2189 10.0002 13.2189C10.4633 13.2189 10.905 13.1276 11.309 12.9634L10.4657 11.0594C10.9621 10.9664 11.338 10.5316 11.338 10.0083C11.9291 10.0083 12.4082 9.52909 12.4082 8.93799H12.3726C12.9636 8.93799 13.4785 8.45885 13.4785 7.86784Z" fill="#FF9811"/>
<path d="M9.99996 9.3479L8.58691 10.0001V11.3044L9.99996 12.174L11.413 11.3044V10.0001L9.99996 9.3479Z" fill="#0052B4"/>
<path d="M11.413 8.69556H8.58691V9.99989H11.413V8.69556Z" fill="#D80027"/>
</svg>
