<svg width="20" height="20" viewBox="0 0 20 20" fill="none" xmlns="http://www.w3.org/2000/svg">
<path d="M10 20C15.5228 20 20 15.5228 20 10C20 4.47715 15.5228 0 10 0C4.47715 0 0 4.47715 0 10C0 15.5228 4.47715 20 10 20Z" fill="#F0F0F0"/>
<path d="M0.344238 12.609C0.922832 14.7558 2.19803 16.6165 3.91279 17.9341V12.609H0.344238Z" fill="#D80027"/>
<path d="M9.13037 19.9623C9.41701 19.9869 9.70689 20.0003 9.99994 20.0003C14.6202 20.0003 18.5079 16.8667 19.6554 12.609H9.13037V19.9623Z" fill="#D80027"/>
<path d="M19.6554 7.39129C18.5079 3.13363 14.6202 0 9.99994 0C9.70689 0 9.41701 0.0133594 9.13037 0.0380469V7.39129H19.6554Z" fill="#D80027"/>
<path d="M3.91279 2.06653C2.19803 3.38411 0.922832 5.24477 0.344238 7.39161H3.91279V2.06653Z" fill="#D80027"/>
<path d="M19.9154 8.69564H7.82613H7.82609V0.237671C6.90195 0.442593 6.02582 0.774741 5.21738 1.21587V8.69556V8.6956H0.0846484C0.0289844 9.12259 0 9.55791 0 9.99998C0 10.442 0.0289844 10.8774 0.0846484 11.3043H5.21734H5.21738V18.784C6.02582 19.2251 6.90195 19.5574 7.82609 19.7622V11.3044V11.3044H19.9154C19.9709 10.8774 20 10.442 20 9.99998C20 9.55791 19.9709 9.12259 19.9154 8.69564Z" fill="#0052B4"/>
</svg>
