<svg width="20" height="20" viewBox="0 0 20 20" fill="none" xmlns="http://www.w3.org/2000/svg">
<path d="M10 20C15.5228 20 20 15.5228 20 10C20 4.47715 15.5228 0 10 0C4.47715 0 0 4.47715 0 10C0 15.5228 4.47715 20 10 20Z" fill="#F0F0F0"/>
<path d="M19.378 13.4782C19.78 12.3948 20 11.2231 20 9.99991C20 8.77671 19.78 7.60499 19.378 6.52167H0.621992C0.220039 7.60499 0 8.77671 0 9.99991C0 11.2231 0.220039 12.3948 0.621992 13.4782L10 14.3477L19.378 13.4782Z" fill="#0052B4"/>
<path d="M9.99959 20.0001C14.2992 20.0001 17.9647 17.2863 19.3776 13.4783H0.621582C2.03451 17.2863 5.69994 20.0001 9.99959 20.0001Z" fill="#D80027"/>
</svg>
