<svg width="20" height="20" viewBox="0 0 20 20" fill="none" xmlns="http://www.w3.org/2000/svg">
<path d="M10 20C15.5228 20 20 15.5228 20 10C20 4.47715 15.5228 0 10 0C4.47715 0 0 4.47715 0 10C0 15.5228 4.47715 20 10 20Z" fill="#6DA544"/>
<path d="M5.65283 11.9565C5.65283 12.6769 6.23682 13.2609 6.95717 13.2609H10.8702C10.8702 13.8612 11.3569 14.3478 11.9572 14.3478H13.2615C13.8618 14.3478 14.3485 13.8612 14.3485 13.2609V11.9565H5.65283Z" fill="#F0F0F0"/>
<path d="M14.456 5.65259V8.69607C14.456 9.17556 14.0659 9.56564 13.5864 9.56564V10.87C14.7851 10.87 15.7603 9.89474 15.7603 8.69607V5.65259H14.456Z" fill="#F0F0F0"/>
<path d="M5.10883 8.6968C5.10883 9.17629 4.71875 9.56637 4.23926 9.56637V10.8707C5.43797 10.8707 6.41316 9.89547 6.41316 8.6968V5.65332H5.10883V8.6968Z" fill="#F0F0F0"/>
<path d="M13.8043 5.65259H12.5V8.69607H13.8043V5.65259Z" fill="#F0F0F0"/>
<path d="M10.5437 7.39149C10.5437 7.51137 10.4461 7.60887 10.3263 7.60887C10.2064 7.60887 10.1089 7.51133 10.1089 7.39149V5.65234H8.80457V7.39149C8.80457 7.51137 8.70703 7.60887 8.58719 7.60887C8.46734 7.60887 8.3698 7.51133 8.3698 7.39149V5.65234H7.06543V7.39149C7.06543 8.23059 7.74809 8.91325 8.58719 8.91325C8.91035 8.91325 9.21004 8.81168 9.45675 8.63918C9.70343 8.81165 10.0032 8.91325 10.3263 8.91325C10.3914 8.91325 10.4554 8.90868 10.5183 8.90067C10.4259 9.28149 10.0829 9.5654 9.67414 9.5654V10.8697C10.8728 10.8697 11.848 9.8945 11.848 8.69582V7.39149V5.65234H10.5437V7.39149H10.5437Z" fill="#F0F0F0"/>
<path d="M9.02196 9.56555H7.06543V10.8699H9.02196V9.56555Z" fill="#F0F0F0"/>
</svg>
