<svg width="20" height="20" viewBox="0 0 20 20" fill="none" xmlns="http://www.w3.org/2000/svg">
<path d="M10 20C15.5228 20 20 15.5228 20 10C20 4.47715 15.5228 0 10 0C4.47715 0 0 4.47715 0 10C0 15.5228 4.47715 20 10 20Z" fill="#F0F0F0"/>
<path d="M0 10C0 4.47719 4.47719 0 10 0C15.5228 0 20 4.47719 20 10" fill="#D80027"/>
<path d="M6.08709 5.21739C6.08709 3.76043 7.11103 2.54333 8.47838 2.24469C8.26822 2.19883 8.05021 2.17395 7.82619 2.17395C6.14529 2.17395 4.78271 3.53653 4.78271 5.21743C4.78271 6.89833 6.14529 8.2609 7.82619 8.2609C8.05014 8.2609 8.26818 8.23602 8.47838 8.19012C7.11103 7.89149 6.08709 6.67438 6.08709 5.21739Z" fill="#F0F0F0"/>
<path d="M10.0002 2.39136L10.2161 3.05562H10.9146L10.3495 3.4662L10.5653 4.13046L10.0002 3.71995L9.43516 4.13046L9.65102 3.4662L9.08594 3.05562H9.78438L10.0002 2.39136Z" fill="#F0F0F0"/>
<path d="M8.30598 3.6958L8.5218 4.3601H9.22027L8.6552 4.77065L8.87106 5.43491L8.30598 5.0244L7.74082 5.43491L7.95672 4.77065L7.3916 4.3601H8.09008L8.30598 3.6958Z" fill="#F0F0F0"/>
<path d="M11.6946 3.6958L11.9105 4.3601H12.6089L12.0438 4.77065L12.2597 5.43491L11.6946 5.0244L11.1295 5.43491L11.3454 4.77065L10.7803 4.3601H11.4787L11.6946 3.6958Z" fill="#F0F0F0"/>
<path d="M11.0427 5.65234L11.2586 6.31664H11.957L11.3919 6.72719L11.6078 7.39145L11.0427 6.98094L10.4776 7.39145L10.6935 6.72719L10.1284 6.31664H10.8268L11.0427 5.65234Z" fill="#F0F0F0"/>
<path d="M8.95828 5.65234L9.1741 6.31664H9.87262L9.3075 6.72719L9.5234 7.39145L8.95828 6.98094L8.39316 7.39145L8.60902 6.72719L8.04395 6.31664H8.74242L8.95828 5.65234Z" fill="#F0F0F0"/>
</svg>
