<svg width="20" height="20" viewBox="0 0 20 20" fill="none" xmlns="http://www.w3.org/2000/svg">
<path d="M10 20C15.5228 20 20 15.5228 20 10C20 4.47715 15.5228 0 10 0C4.47715 0 0 4.47715 0 10C0 15.5228 4.47715 20 10 20Z" fill="#F0F0F0"/>
<path d="M2.92893 17.0707C-0.976309 13.1654 -0.976309 6.83374 2.92893 2.92847C2.92865 2.9289 8.69568 9.99956 8.69568 9.99956L2.92893 17.0707Z" fill="black"/>
<path d="M8.69512 9.99998L1.32574 5.02002C1.09727 5.41717 0.895781 5.8317 0.722656 6.26076L4.45348 10L0.722773 13.7395C0.895742 14.1682 1.09703 14.5825 1.32535 14.9794L8.69512 9.99998Z" fill="#FFDA44"/>
<path d="M19.9151 8.69605H8.69518L2.92861 2.92944C2.30721 3.55085 1.76732 4.25362 1.32607 5.02046L6.29635 10.0004L1.32568 14.9797C1.76693 15.7467 2.30705 16.4497 2.92861 17.0713L8.69518 11.3047H19.9151C19.9707 10.8778 19.9998 10.4425 19.9998 10.0004C19.9998 9.55831 19.9707 9.123 19.9151 8.69605Z" fill="#6DA544"/>
<path d="M3.91211 17.9329C5.5984 19.2291 7.70922 20.0002 10.0005 20.0002C14.6208 20.0002 18.5085 16.8665 19.656 12.6089H9.23614L3.91211 17.9329Z" fill="#0052B4"/>
<path d="M19.656 7.39129C18.5085 3.13363 14.6208 0 10.0005 0C7.70922 0 5.5984 0.771133 3.91211 2.0673L9.2361 7.39129H19.656Z" fill="#D80027"/>
</svg>
