<svg width="20" height="20" viewBox="0 0 20 20" fill="none" xmlns="http://www.w3.org/2000/svg">
<path d="M10 20C15.5228 20 20 15.5228 20 10C20 4.47715 15.5228 0 10 0C4.47715 0 0 4.47715 0 10C0 15.5228 4.47715 20 10 20Z" fill="#F0F0F0"/>
<path d="M13.4785 9.99985C13.4785 10.8694 11.9212 13.0433 10.0002 13.0433C8.07924 13.0433 6.52197 10.8694 6.52197 9.99985C6.52197 8.07883 8.07924 6.52161 10.0002 6.52161C11.9212 6.52161 13.4785 8.07883 13.4785 9.99985Z" fill="#D80027"/>
<path d="M13.4785 10C13.4785 11.921 11.9212 13.4782 10.0002 13.4782C8.07924 13.4782 6.52197 11.921 6.52197 10" fill="#0052B4"/>
<path d="M14.6118 12.1519L13.6895 13.0742L14.3043 13.6891L15.2266 12.7668L14.6118 12.1519Z" fill="black"/>
<path d="M13.0737 13.6894L12.1514 14.6117L12.7662 15.2266L13.6886 14.3043L13.0737 13.6894Z" fill="black"/>
<path d="M16.456 13.9964L15.5337 14.9187L16.1486 15.5336L17.0709 14.6113L16.456 13.9964Z" fill="black"/>
<path d="M14.9189 15.5341L13.9966 16.4564L14.6115 17.0713L15.5338 16.149L14.9189 15.5341Z" fill="black"/>
<path d="M15.5336 13.0743L14.6113 13.9966L15.2262 14.6115L16.1485 13.6892L15.5336 13.0743Z" fill="black"/>
<path d="M13.997 14.6118L13.0747 15.5341L13.6896 16.1489L14.6119 15.2266L13.997 14.6118Z" fill="black"/>
<path d="M13.0752 4.4657L15.5347 6.92517L16.1495 6.3103L13.6901 3.85083L13.0752 4.4657Z" fill="black"/>
<path d="M12.1524 5.38874L13.0747 6.31104L13.6895 5.69619L12.7673 4.77389L12.1524 5.38874Z" fill="black"/>
<path d="M13.6895 6.92573L14.6118 7.84802L15.2267 7.23318L14.3044 6.31088L13.6895 6.92573Z" fill="black"/>
<path d="M13.9962 3.54414L14.9185 4.46643L15.5333 3.85156L14.611 2.92926L13.9962 3.54414Z" fill="black"/>
<path d="M15.5338 5.08124L16.4561 6.00354L17.0709 5.38867L16.1486 4.46637L15.5338 5.08124Z" fill="black"/>
<path d="M6.0039 16.4562L3.54443 13.9967L2.92956 14.6116L5.38902 17.0711L6.0039 16.4562Z" fill="black"/>
<path d="M6.92571 15.5336L6.00342 14.6113L5.38857 15.2262L6.31087 16.1485L6.92571 15.5336Z" fill="black"/>
<path d="M5.3886 13.9966L4.46631 13.0743L3.85144 13.6892L4.77373 14.6115L5.3886 13.9966Z" fill="black"/>
<path d="M7.84814 14.6113L5.38867 12.1519L4.7738 12.7667L7.23327 15.2262L7.84814 14.6113Z" fill="black"/>
<path d="M3.54347 6.00329L6.00293 3.54382L5.38806 2.92895L2.92859 5.38842L3.54347 6.00329Z" fill="black"/>
<path d="M4.46631 6.92565L6.92578 4.46619L6.31091 3.85131L3.85144 6.31078L4.46631 6.92565Z" fill="black"/>
<path d="M5.38917 7.84802L7.84863 5.38855L7.23379 4.7737L4.77432 7.23317L5.38917 7.84802Z" fill="black"/>
</svg>
