<svg width="20" height="20" viewBox="0 0 20 20" fill="none" xmlns="http://www.w3.org/2000/svg">
<path d="M10 20C15.5228 20 20 15.5228 20 10C20 4.47715 15.5228 0 10 0C4.47715 0 0 4.47715 0 10C0 15.5228 4.47715 20 10 20Z" fill="#FFDA44"/>
<path d="M20 10C20 4.47715 15.5228 0 10 0C4.47715 0 0 4.47715 0 10" fill="#D80027"/>
<path d="M3.47826 6.08696H4.78261L4.13043 4.78261L3.47826 6.08696Z" fill="#FFDA44"/>
<path d="M3.47826 3.47826H4.78261V4.13043H3.47826V3.47826Z" fill="#FFDA44"/>
<path d="M5.43478 4.78261H6.73913L6.08696 3.47826L5.43478 4.78261Z" fill="#FFDA44"/>
<path d="M2.17391 4.78261H3.47826L2.82609 3.47826L2.17391 4.78261Z" fill="#FFDA44"/>
</svg>
