<svg width="20" height="20" viewBox="0 0 20 20" fill="none" xmlns="http://www.w3.org/2000/svg">
<path d="M10 20C15.5228 20 20 15.5228 20 10C20 4.47715 15.5228 0 10 0C4.47715 0 0 4.47715 0 10C0 15.5228 4.47715 20 10 20Z" fill="#FFDA44"/>
<path d="M7.8267 8.69566H19.9159C19.2768 3.78914 15.0813 0 10.0006 0C9.25393 0 8.52662 0.0825391 7.82666 0.237695V8.69566H7.8267Z" fill="#0052B4"/>
<path d="M5.2177 8.69604V1.21631C2.47184 2.71451 0.506172 5.4626 0.0849609 8.69607H5.2177V8.69604Z" fill="#0052B4"/>
<path d="M5.21766 11.304H0.0849609C0.506172 14.5374 2.47184 17.2855 5.2177 18.7837L5.21766 11.304Z" fill="#0052B4"/>
<path d="M7.82666 11.304V19.7619C8.52662 19.9171 9.25393 19.9996 10.0006 19.9996C15.0813 19.9996 19.2768 16.2105 19.9159 11.304H7.82666V11.304Z" fill="#0052B4"/>
</svg>
