<svg width="20" height="20" viewBox="0 0 20 20" fill="none" xmlns="http://www.w3.org/2000/svg">
<g clip-path="url(#clip0)">
<path d="M0.992266 5.65253C0.356562 6.96722 0 8.44214 0 10.0003C0 11.5585 0.356562 13.0335 0.992266 14.3482L10 15.2177L19.0077 14.3482C19.6434 13.0335 20 11.5585 20 10.0003C20 8.44214 19.6434 6.96722 19.0077 5.65253L10 4.78296L0.992266 5.65253Z" fill="#F0F0F0"/>
<path d="M0.992676 14.3479C2.61014 17.6928 6.03549 20.0001 10.0001 20.0001C13.9646 20.0001 17.39 17.6928 19.0074 14.3479H0.992676Z" fill="#6DA544"/>
<path d="M0.992676 5.65219H19.0074C17.39 2.30727 13.9646 0 10.0001 0C6.03549 0 2.61014 2.30727 0.992676 5.65219Z" fill="#D80027"/>
<path d="M8.26074 12.6088H11.739V11.1305L11.0434 11.4783L9.99989 10.4348L8.95641 11.4783L8.26074 11.1305V12.6088Z" fill="#FFDA44"/>
<path d="M6.2707 10.8691L6.43262 11.3673H6.95645L6.53262 11.6753L6.69453 12.1735L6.2707 11.8656L5.84688 12.1735L6.00879 11.6753L5.58496 11.3673H6.10879L6.2707 10.8691Z" fill="#FFDA44"/>
<path d="M6.77266 9.13L6.93457 9.62821H7.4584L7.03457 9.93614L7.19644 10.4343L6.77266 10.1265L6.34883 10.4343L6.51074 9.93614L6.08691 9.62821H6.61074L6.77266 9.13Z" fill="#FFDA44"/>
<path d="M8.20772 7.82605L8.36963 8.32425H8.89343L8.46967 8.63218L8.63151 9.13038L8.20772 8.82249L7.78393 9.13038L7.9458 8.63218L7.52197 8.32425H8.04584L8.20772 7.82605Z" fill="#FFDA44"/>
<path d="M13.7287 10.8691L13.5668 11.3673H13.043L13.4668 11.6753L13.3049 12.1735L13.7287 11.8656L14.1525 12.1735L13.9906 11.6753L14.4145 11.3673H13.8906L13.7287 10.8691Z" fill="#FFDA44"/>
<path d="M13.2277 9.13L13.0658 9.62821H12.542L12.9658 9.93614L12.8039 10.4343L13.2277 10.1265L13.6516 10.4343L13.4896 9.93614L13.9135 9.62821H13.3896L13.2277 9.13Z" fill="#FFDA44"/>
<path d="M11.7921 7.82605L11.6302 8.32425H11.1064L11.5302 8.63218L11.3683 9.13038L11.7921 8.82249L12.2159 9.13038L12.0541 8.63218L12.4779 8.32425H11.954L11.7921 7.82605Z" fill="#FFDA44"/>
<path d="M9.99971 7.17371L10.1616 7.67191H10.6854L10.2616 7.97984L10.4235 8.47804L9.99971 8.17015L9.57588 8.47804L9.73779 7.97984L9.31396 7.67191H9.83779L9.99971 7.17371Z" fill="#FFDA44"/>
</g>
<defs>
<clipPath id="clip0">
<path d="M0 0H20V20H0V0Z" fill="white"/>
</clipPath>
</defs>
</svg>
