<svg width="20" height="20" viewBox="0 0 20 20" fill="none" xmlns="http://www.w3.org/2000/svg">
<path d="M10 20C15.5228 20 20 15.5228 20 10C20 4.47715 15.5228 0 10 0C4.47715 0 0 4.47715 0 10C0 15.5228 4.47715 20 10 20Z" fill="#F0F0F0"/>
<path d="M19.378 6.52209H0.621992C0.22 7.60542 0 8.77713 0 10.0003C0 11.2235 0.22 12.3953 0.621992 13.4786H19.378C19.78 12.3953 20 11.2235 20 10.0003C20 8.77713 19.78 7.60542 19.378 6.52209Z" fill="#0052B4"/>
<path d="M10.0004 0C6.96954 0 4.25379 1.34859 2.41992 3.47824H17.5809C15.7471 1.34859 13.0313 0 10.0004 0Z" fill="#D80027"/>
<path d="M17.5809 16.5221H2.41992C4.25379 18.6517 6.96953 20.0003 10.0004 20.0003C13.0313 20.0003 15.7471 18.6517 17.5809 16.5221Z" fill="#D80027"/>
</svg>
