<svg width="20" height="20" viewBox="0 0 20 20" fill="none" xmlns="http://www.w3.org/2000/svg">
<path d="M10 20C15.5228 20 20 15.5228 20 10C20 4.47715 15.5228 0 10 0C4.47715 0 0 4.47715 0 10C0 15.5228 4.47715 20 10 20Z" fill="#D80027"/>
<path d="M9.59092 8.17151L10.4114 9.30217L11.7402 8.87131L10.9184 10.001L11.7388 11.1316L10.4105 10.6991L9.58873 11.8288L9.58959 10.4319L8.26123 9.9994L9.59006 9.56854L9.59092 8.17151Z" fill="#F0F0F0"/>
<path d="M7.35132 12.8262C5.79054 12.8262 4.52523 11.5609 4.52523 10.0001C4.52523 8.43935 5.79054 7.17404 7.35132 7.17404C7.83796 7.17404 8.29585 7.29713 8.69562 7.51373C8.06847 6.90037 7.21077 6.52185 6.26437 6.52185C4.34336 6.52185 2.78613 8.07912 2.78613 10.0001C2.78613 11.9211 4.3434 13.4783 6.26437 13.4783C7.21085 13.4783 8.06851 13.0998 8.69562 12.4865C8.29585 12.7031 7.83796 12.8262 7.35132 12.8262Z" fill="#F0F0F0"/>
</svg>
