<svg width="20" height="20" viewBox="0 0 20 20" fill="none" xmlns="http://www.w3.org/2000/svg">
<path d="M10 20C15.5228 20 20 15.5228 20 10C20 4.47715 15.5228 0 10 0C4.47715 0 0 4.47715 0 10C0 15.5228 4.47715 20 10 20Z" fill="#F0F0F0"/>
<path d="M5.65234 13.4784L6.52191 19.3782C7.6052 19.7802 8.77695 20.0001 10.0002 20.0001C14.2998 20.0001 17.9652 17.2864 19.3781 13.4784H5.65234Z" fill="black"/>
<path d="M5.65234 6.52176L6.52191 0.621914C7.6052 0.219922 8.77695 0 10.0002 0C14.2998 0 17.9652 2.71375 19.3781 6.52176H5.65234Z" fill="#6DA544"/>
<path d="M0 9.99996C0 14.2996 2.71379 17.965 6.52176 19.378V0.621948C2.71379 2.03488 0 5.70031 0 9.99996Z" fill="#A2001D"/>

</svg>
