<svg width="20" height="20" viewBox="0 0 20 20" fill="none" xmlns="http://www.w3.org/2000/svg">
<path d="M10 20C15.5228 20 20 15.5228 20 10C20 4.47715 15.5228 0 10 0C4.47715 0 0 4.47715 0 10C0 15.5228 4.47715 20 10 20Z" fill="#F0F0F0"/>
<path d="M2.06693 3.91174C1.28143 4.93374 0.689121 6.11166 0.344238 7.39131H5.5465L2.06693 3.91174Z" fill="#0052B4"/>
<path d="M19.6553 7.39066C19.3104 6.11105 18.7181 4.93312 17.9326 3.91113L14.4531 7.39066H19.6553Z" fill="#0052B4"/>
<path d="M0.344238 12.6085C0.68916 13.8881 1.28146 15.0661 2.06693 16.088L5.54639 12.6085H0.344238Z" fill="#0052B4"/>
<path d="M16.0874 2.06685C15.0654 1.28134 13.8876 0.689038 12.6079 0.344116V5.54634L16.0874 2.06685Z" fill="#0052B4"/>
<path d="M3.91162 17.9321C4.93361 18.7176 6.11154 19.3099 7.39115 19.6548V14.4526L3.91162 17.9321Z" fill="#0052B4"/>
<path d="M7.39111 0.344116C6.1115 0.689038 4.93357 1.28134 3.91162 2.06681L7.39111 5.5463V0.344116Z" fill="#0052B4"/>
<path d="M12.6084 19.6548C13.888 19.3099 15.0659 18.7176 16.0879 17.9321L12.6084 14.4526V19.6548Z" fill="#0052B4"/>
<path d="M14.4531 12.6085L17.9326 16.088C18.7181 15.0661 19.3104 13.8881 19.6553 12.6085H14.4531Z" fill="#0052B4"/>
<path d="M19.9154 8.69566H11.3044H11.3044V0.0846484C10.8774 0.0290625 10.4421 0 10 0C9.55785 0 9.12262 0.0290625 8.69566 0.0846484V8.69559V8.69563H0.0846484C0.0290625 9.12262 0 9.55793 0 10C0 10.4421 0.0290625 10.8774 0.0846484 11.3043H8.69559H8.69563V19.9154C9.12262 19.9709 9.55785 20 10 20C10.4421 20 10.8774 19.971 11.3043 19.9154V11.3044V11.3044H19.9154C19.9709 10.8774 20 10.4421 20 10C20 9.55793 19.9709 9.12262 19.9154 8.69566Z" fill="#D80027"/>
<path d="M12.6089 12.609L17.0712 17.0714C17.2765 16.8662 17.4723 16.6518 17.6591 16.4294L13.8387 12.609H12.6089V12.609Z" fill="#D80027"/>
<path d="M7.39109 12.6084H7.39102L2.92871 17.0707C3.13387 17.2759 3.34836 17.4717 3.5707 17.6585L7.39109 13.838V12.6084Z" fill="#D80027"/>
<path d="M7.39098 7.39105V7.39098L2.92863 2.92859C2.7234 3.13375 2.52762 3.34824 2.34082 3.57058L6.16125 7.39102H7.39098V7.39105Z" fill="#D80027"/>
<path d="M12.6089 7.3915L17.0713 2.92908C16.8661 2.72385 16.6516 2.52807 16.4293 2.34131L12.6089 6.16174V7.3915Z" fill="#D80027"/>
</svg>
