<svg width="20" height="20" viewBox="0 0 20 20" fill="none" xmlns="http://www.w3.org/2000/svg">
<path d="M0.472188 6.95641C0.165859 7.9161 -3.90556e-05 8.93848 6.89667e-09 9.99977C-3.90556e-05 11.0611 0.165898 12.0836 0.472227 13.0432L10 13.4781L19.5278 13.0433C19.8341 12.0836 20 11.0611 20 9.99985C20 8.93852 19.8341 7.9161 19.5278 6.95637L10 6.52161L0.472188 6.95641Z" fill="#F0F0F0"/>
<path d="M19.5269 6.95662L9.99908 6.52185L0.47127 6.95662C0.380488 7.24115 0.302324 7.53126 0.236816 7.82619H19.7612C19.6958 7.53123 19.6176 7.24107 19.5269 6.95662Z" fill="#D80027"/>
<path d="M0.237305 12.1741C0.302734 12.469 0.380898 12.7591 0.47168 13.0436L0.472617 13.0436L9.99942 13.4784L19.5272 13.0436C19.618 12.7591 19.6961 12.469 19.7616 12.1741H0.237305Z" fill="#D80027"/>
<path d="M9.9999 19.9997C14.4615 19.9997 18.24 17.0777 19.5277 13.0432H0.472168C1.75986 17.0777 5.53846 19.9997 9.9999 19.9997Z" fill="#6DA544"/>
<path d="M9.99994 0.000244141C5.53846 0.000283204 1.75994 2.92227 0.472168 6.95677L19.5277 6.95681C18.2401 2.92224 14.4615 0.000205079 9.99994 0.000244141Z" fill="#338AF3"/>
<path d="M4.56996 4.1308C4.56996 3.1942 5.2282 2.41178 6.10723 2.21982C5.97215 2.19029 5.83195 2.17432 5.68797 2.17432C4.60742 2.17432 3.73145 3.05025 3.73145 4.13084C3.73145 5.21142 4.60734 6.08736 5.68797 6.08736C5.83195 6.08736 5.97211 6.07134 6.10723 6.04185C5.22824 5.84982 4.56996 5.0674 4.56996 4.1308Z" fill="#F0F0F0"/>
<path d="M7.26422 5.0199L7.39664 5.42752H7.82523L7.47852 5.67947L7.61094 6.08709L7.26422 5.83518L6.91742 6.08709L7.04988 5.67947L6.70312 5.42752H7.13172L7.26422 5.0199Z" fill="#F0F0F0"/>
<path d="M8.63182 5.0199L8.76428 5.42752H9.19287L8.84611 5.67947L8.97857 6.08709L8.63182 5.83518L8.28506 6.08709L8.41752 5.67947L8.0708 5.42752H8.49936L8.63182 5.0199Z" fill="#F0F0F0"/>
<path d="M10.0001 5.0199L10.1325 5.42752H10.5611L10.2144 5.67947L10.3468 6.08709L10.0001 5.83518L9.65326 6.08709L9.78576 5.67947L9.43896 5.42752H9.8676L10.0001 5.0199Z" fill="#F0F0F0"/>
<path d="M11.3677 5.0199L11.5002 5.42752H11.9288L11.582 5.67947L11.7145 6.08709L11.3677 5.83518L11.0209 6.08709L11.1534 5.67947L10.8066 5.42752H11.2352L11.3677 5.0199Z" fill="#F0F0F0"/>
<path d="M12.7349 5.0199L12.8673 5.42752H13.2959L12.9492 5.67947L13.0817 6.08709L12.7349 5.83518L12.3881 6.08709L12.5206 5.67947L12.1738 5.42752H12.6024L12.7349 5.0199Z" fill="#F0F0F0"/>
<path d="M8.63182 3.5968L8.76428 4.00438H9.19287L8.84611 4.25637L8.97857 4.66395L8.63182 4.41204L8.28506 4.66395L8.41752 4.25637L8.0708 4.00438H8.49936L8.63182 3.5968Z" fill="#F0F0F0"/>
<path d="M10.0001 3.5968L10.1325 4.00438H10.5611L10.2144 4.25637L10.3468 4.66395L10.0001 4.41204L9.65326 4.66395L9.78576 4.25637L9.43896 4.00438H9.8676L10.0001 3.5968Z" fill="#F0F0F0"/>
<path d="M11.3677 3.5968L11.5002 4.00438H11.9288L11.582 4.25637L11.7145 4.66395L11.3677 4.41204L11.0209 4.66395L11.1534 4.25637L10.8066 4.00438H11.2352L11.3677 3.5968Z" fill="#F0F0F0"/>
<path d="M12.7349 3.5968L12.8673 4.00438H13.2959L12.9492 4.25637L13.0817 4.66395L12.7349 4.41204L12.3881 4.66395L12.5206 4.25637L12.1738 4.00438H12.6024L12.7349 3.5968Z" fill="#F0F0F0"/>
<path d="M10.0001 2.17395L10.1325 2.58161H10.5611L10.2144 2.83352L10.3468 3.24118L10.0001 2.98926L9.65326 3.24118L9.78576 2.83352L9.43896 2.58161H9.8676L10.0001 2.17395Z" fill="#F0F0F0"/>
<path d="M11.3677 2.17395L11.5002 2.58161H11.9288L11.582 2.83352L11.7145 3.24118L11.3677 2.98926L11.0209 3.24118L11.1534 2.83352L10.8066 2.58161H11.2352L11.3677 2.17395Z" fill="#F0F0F0"/>
<path d="M12.7349 2.17395L12.8673 2.58161H13.2959L12.9492 2.83352L13.0817 3.24118L12.7349 2.98926L12.3881 3.24118L12.5206 2.83352L12.1738 2.58161H12.6024L12.7349 2.17395Z" fill="#F0F0F0"/>
</svg>
